<?xml version="1.0" encoding="UTF-8"?>
<svg width="13px" height="13px" viewBox="0 0 13 13" version="1.1" xmlns="http://www.w3.org/2000/svg" xmlns:xlink="http://www.w3.org/1999/xlink">
    <title>wawa logo block rainbow@1x</title>
    <g id="wawa-logo-block-rainbow" stroke="none" stroke-width="1" fill="none" fill-rule="evenodd">
        <path d="M12,7 L12,12 L9,12 L9,11 L8,11 L8,12 L5,12 L5,11 L6,11 L6,10 L7,10 L7,9 L8,9 L8,8 L9,8 L9,7 L12,7 Z M11,10 L10,10 L10,11 L11,11 L11,10 Z" id="a" fill="#00AF4D"></path>
        <polygon id="w" fill="#418AF1" points="1 7 2 7 2 8 3 8 3 7 4 7 4 8 5 8 5 7 8 7 8 8 7 8 7 9 6 9 6 10 5 10 5 11 4 11 4 12 1 12"></polygon>
        <path d="M12,1 L12,6 L9,6 L9,5 L8,5 L8,6 L5,6 L5,5 L6,5 L6,4 L7,4 L7,3 L8,3 L8,2 L9,2 L9,1 L12,1 Z M11,4 L10,4 L10,5 L11,5 L11,4 Z" id="a" fill="#F83737"></path>
        <polygon id="w" fill="#FFCD03" points="1 1 2 1 2 2 3 2 3 1 4 1 4 2 5 2 5 1 8 1 8 2 7 2 7 3 6 3 6 4 5 4 5 5 4 5 4 6 1 6"></polygon>
    </g>
</svg>