<?xml version="1.0" encoding="UTF-8"?>
<svg width="1300px" height="1300px" viewBox="0 0 1300 1300" version="1.1" xmlns="http://www.w3.org/2000/svg" xmlns:xlink="http://www.w3.org/1999/xlink">
    <title>wawa logo zook green@1x</title>
    <g id="wawa-logo-zook-green" stroke="none" stroke-width="1" fill="none" fill-rule="evenodd">
        <path d="M1200,700 L1200,1200 L900,1200 L900,1100 L800,1100 L800,1200 L500,1200 L500,1100 L600,1100 L600,1000 L700,1000 L700,900 L800,900 L800,800 L900,800 L900,700 L1200,700 Z M200,700 L200,800 L300,800 L300,700 L400,700 L400,800 L500,800 L500,700 L800,700 L800,800 L700,800 L700,900 L600,900 L600,1000 L500,1000 L500,1100 L400,1100 L400,1200 L100,1200 L100,700 L200,700 Z M1100,1000 L1000,1000 L1000,1100 L1100,1100 L1100,1000 Z M1200,100 L1200,600 L900,600 L900,500 L800,500 L800,600 L500,600 L500,500 L600,500 L600,400 L700,400 L700,300 L800,300 L800,200 L900,200 L900,100 L1200,100 Z M200,100 L200,200 L300,200 L300,100 L400,100 L400,200 L500,200 L500,100 L800,100 L800,200 L700,200 L700,300 L600,300 L600,400 L500,400 L500,500 L400,500 L400,600 L100,600 L100,100 L200,100 Z M1100,400 L1000,400 L1000,500 L1100,500 L1100,400 Z" id="logo" fill="#00af4d"></path>
    </g>
</svg>