<?xml version="1.0" encoding="UTF-8"?>
<svg width="57px" height="14px" viewBox="0 0 57 14" version="1.1" xmlns="http://www.w3.org/2000/svg" xmlns:xlink="http://www.w3.org/1999/xlink">
    <title>wawa-mecha-logotype-black</title>
    <g id="wawa-mecha-logotype-black" stroke="none" stroke-width="1" fill="none" fill-rule="evenodd">
        <g id="a" transform="translate(45, 3)" fill="#000000">
            <rect id="rectangle-1" x="2" y="0" width="4" height="2"></rect>
            <path d="M0,2 L2,2 L2,4 L6,4 L6,2 L8,2 C8,6 8,8 8,8 C8,8 8,8 6,8 L6,6 L2,6 L2,8 L0,8 L0,2 Z" id="path-1"></path>
        </g>
        <g id="h" transform="translate(35, 3)" fill="#000000">
            <polygon id="path-1" points="2 0 2 4 6 4 6 0 8 0 8 8 6 8 6 6 2 6 2 8 0 8 0 0"></polygon>
        </g>
        <g id="c" transform="translate(27, 3)" fill="#000000">
            <rect id="rectangle-3" x="2" y="0" width="4" height="2"></rect>
            <rect id="rectangle-2" x="2" y="6" width="4" height="2"></rect>
            <rect id="rectangle-1" x="0" y="2" width="2" height="4"></rect>
        </g>
        <g id="e" transform="translate(17, 3)" fill="#000000">
            <rect id="rectangle-2" x="6" y="0" width="2" height="2"></rect>
            <rect id="rectangle-1" x="2" y="6" width="6" height="2"></rect>
            <path d="M0,0 L2,0 C2,2 2,2 2,2 C2,2 4,2 6,2 L6,4 L2,4 C2,6 2,6 2,6 C2,6 2,6 0,6 L0,0 Z" id="path-1"></path>
        </g>
        <g id="m" transform="translate(3, 3)" fill="#000000">
            <rect id="rectangle-5" x="6" y="4" width="2" height="4"></rect>
            <rect id="rectangle-4" x="6" y="0" width="2" height="2"></rect>
            <rect id="rectangle-3" x="4" y="2" width="2" height="2"></rect>
            <rect id="rectangle-2" x="2" y="4" width="2" height="2"></rect>
            <rect id="rectangle-1" x="0" y="6" width="2" height="2"></rect>
            <polygon id="path-1" points="10 0 12 0 12 8 10 8 10 4 8 4 8 2 10 2"></polygon>
        </g>
    </g>
</svg>