<?xml version="1.0" encoding="UTF-8"?>
<svg width="58px" height="15px" viewBox="0 0 58 15" version="1.1" xmlns="http://www.w3.org/2000/svg" xmlns:xlink="http://www.w3.org/1999/xlink">
    <title>wawa-zook-logo-logotype-green</title>
    <g id="wawa-zook-logo-logotype-green" stroke="none" stroke-width="1" fill="none" fill-rule="evenodd">
        <path d="M14,1 L14,14 L1,14 L1,1 L14,1 Z M13,2 L2,2 L2,13 L13,13 L13,2 Z M6,9 L6,12 L3,12 L3,9 L6,9 Z M12,9 L12,12 L9,12 L9,9 L12,9 Z M12,3 L12,6 L9,6 L9,9 L6,9 L6,6 L3,6 L3,3 L12,3 Z" id="logo" fill="#00AF4D"></path>
        <g id="k" transform="translate(47, 4)" fill="#00AF4D">
            <rect id="rectangle-3" x="4" y="2" width="2" height="2"></rect>
            <rect id="rectangle-2" x="6" y="0" width="2" height="2"></rect>
            <rect id="rectangle-1" x="4" y="6" width="4" height="2"></rect>
            <path d="M2,0 C2,2 2,4 2,4 C2,4 2,4 4,4 L4,6 L2,6 L2,8 L0,8 L0,0 L2,0 Z" id="path-1"></path>
        </g>
        <g id="o" transform="translate(27, 4)" fill="#00AF4D">
            <rect id="rectangle-4" x="6" y="2" width="2" height="4"></rect>
            <rect id="rectangle-3" x="2" y="0" width="4" height="2"></rect>
            <rect id="rectangle-2" x="2" y="6" width="4" height="2"></rect>
            <rect id="rectangle-1" x="0" y="2" width="2" height="4"></rect>
        </g>
        <g id="o" transform="translate(37, 4)" fill="#00AF4D">
            <rect id="rectangle-4" x="6" y="2" width="2" height="4"></rect>
            <rect id="rectangle-3" x="2" y="0" width="4" height="2"></rect>
            <rect id="rectangle-2" x="2" y="6" width="4" height="2"></rect>
            <rect id="rectangle-1" x="0" y="2" width="2" height="4"></rect>
        </g>
        <g id="z" transform="translate(17, 4)" fill="#00AF4D">
            <polygon id="path-2" points="0 0 8 0 8 2 6 2 6 4 4 4 4 2 0 2"></polygon>
            <path d="M0,6 C2,6 2,6 2,6 C2,6 2,6 2,4 L4,4 C4,6 4,6 4,6 C4,6 6,6 8,6 L8,8 L0,8 L0,6 Z" id="path-1"></path>
        </g>
    </g>
</svg>