<?xml version="1.0" encoding="UTF-8"?>
<svg width="44px" height="14px" viewBox="0 0 44 14" version="1.1" xmlns="http://www.w3.org/2000/svg" xmlns:xlink="http://www.w3.org/1999/xlink">
    <title>wawa-zook-logotype-black</title>
    <g id="wawa-zook-logotype-black" stroke="none" stroke-width="1" fill="none" fill-rule="evenodd">
        <g id="k" transform="translate(33, 3)" fill="#000000">
            <rect id="rectangle-3" x="4" y="2" width="2" height="2"></rect>
            <rect id="rectangle-2" x="6" y="0" width="2" height="2"></rect>
            <rect id="rectangle-1" x="4" y="6" width="4" height="2"></rect>
            <path d="M2,0 C2,2 2,4 2,4 C2,4 2,4 4,4 L4,6 L2,6 L2,8 L0,8 L0,0 L2,0 Z" id="path-1"></path>
        </g>
        <g id="o" transform="translate(13, 3)" fill="#000000">
            <rect id="rectangle-4" x="6" y="2" width="2" height="4"></rect>
            <rect id="rectangle-3" x="2" y="0" width="4" height="2"></rect>
            <rect id="rectangle-2" x="2" y="6" width="4" height="2"></rect>
            <rect id="rectangle-1" x="0" y="2" width="2" height="4"></rect>
        </g>
        <g id="o" transform="translate(23, 3)" fill="#000000">
            <rect id="rectangle-4" x="6" y="2" width="2" height="4"></rect>
            <rect id="rectangle-3" x="2" y="0" width="4" height="2"></rect>
            <rect id="rectangle-2" x="2" y="6" width="4" height="2"></rect>
            <rect id="rectangle-1" x="0" y="2" width="2" height="4"></rect>
        </g>
        <g id="z" transform="translate(3, 3)" fill="#000000">
            <polygon id="path-2" points="0 0 8 0 8 2 6 2 6 4 4 4 4 2 0 2"></polygon>
            <path d="M0,6 C2,6 2,6 2,6 C2,6 2,6 2,4 L4,4 C4,6 4,6 4,6 C4,6 6,6 8,6 L8,8 L0,8 L0,6 Z" id="path-1"></path>
        </g>
    </g>
</svg>