<?xml version="1.0" encoding="UTF-8"?>
<svg width="64px" height="15px" viewBox="0 0 64 15" version="1.1" xmlns="http://www.w3.org/2000/svg" xmlns:xlink="http://www.w3.org/1999/xlink">
    <title>wawa-prima-logo-logotype-blue</title>
    <g id="wawa-prima-logo-logotype-blue" stroke="none" stroke-width="1" fill="none" fill-rule="evenodd">
        <path d="M14,1 L14,14 L1,14 L1,1 L14,1 Z M13,2 L2,2 L2,13 L13,13 L13,2 Z M6,9 L6,12 L3,12 L3,9 L6,9 Z M12,3 L12,9 L6,9 L6,3 L12,3 Z" id="logo" fill="#418AF1"></path>
        <g id="a" transform="translate(53, 4)" fill="#418AF1">
            <rect id="rectangle-1" x="2" y="0" width="4" height="2"></rect>
            <path d="M0,2 L2,2 L2,4 L6,4 L6,2 L8,2 C8,6 8,8 8,8 C8,8 8,8 6,8 L6,6 L2,6 L2,8 L0,8 L0,2 Z" id="path-1"></path>
        </g>
        <g id="im" transform="translate(37, 4)" fill="#418AF1">
            <rect id="rectangle-5" x="8" y="4" width="2" height="4"></rect>
            <rect id="rectangle-4" x="8" y="0" width="2" height="2"></rect>
            <rect id="rectangle-3" x="6" y="2" width="2" height="2"></rect>
            <rect id="rectangle-2" x="4" y="4" width="2" height="2"></rect>
            <rect id="rectangle-1" x="0" y="0" width="2" height="2"></rect>
            <polygon id="path-2" points="12 0 14 0 14 8 12 8 12 4 10 4 10 2 12 2"></polygon>
            <polygon id="path-1" points="2 4 2 6 4 6 4 8 0 8 0 4"></polygon>
        </g>
        <g id="r" transform="translate(27, 4)" fill="#418AF1">
            <rect id="rectangle-3" x="6" y="2" width="2" height="2"></rect>
            <rect id="rectangle-2" x="6" y="6" width="2" height="2"></rect>
            <rect id="rectangle-1" x="2" y="0" width="4" height="2"></rect>
            <path d="M0,2 L2,2 C2,4 2,4 2,4 C2,4 4,4 6,4 L6,6 L2,6 C2,8 2,8 2,8 C2,8 2,8 0,8 L0,2 Z" id="path-1"></path>
        </g>
        <g id="p" transform="translate(17, 4)" fill="#418AF1">
            <rect id="rectangle-2" x="6" y="2" width="2" height="2"></rect>
            <rect id="rectangle-1" x="2" y="0" width="4" height="2"></rect>
            <path d="M0,2 L2,2 C2,4 2,4 2,4 C2,4 4,4 6,4 L6,6 L2,6 C2,8 2,8 2,8 C2,8 2,8 0,8 L0,2 Z" id="path-1"></path>
        </g>
    </g>
</svg>