<svg xmlns="http://www.w3.org/2000/svg" width="100" height="36" viewBox="0 0 100 36" fill="none">
  <path d="M0 0H100V36H0V0Z" fill="black"/>
  <path d="M8 4V8H12V4H16V8H20V4H32V8H36V4H48V8H52V4H56V8H60V4H64V8H68V4H80V8H84V4H96V32H84V28H80V32H68V28H64V32H52V28H48V32H36V28H32V32H20V28H16V32H4V4Z" fill="#0088FF"/>
  <path fill-rule="evenodd" clip-rule="evenodd" d="M8 4H4V24H16V20H20V24H32V20H36V24H48V4H36V8H32V4H20V8H16V4H12V8H8V4ZM28 12V8H32V12H28ZM24 16V12H28V16H24ZM24 16H20V20H24V16ZM40 16H44V20H40V20Z" fill="white"/>
  <path fill-rule="evenodd" clip-rule="evenodd" d="M56 4H52V24H64V20H68V24H80V20H84V24H96V4H84V8H80V4H68V8H64V4H60V8H56V4ZM76 12V8H80V12H76ZM72 16V12H76V16H72ZM72 16H68V20H72V16ZM88 16H92V20H88V20Z" fill="white"/>
</svg>
