<svg xmlns="http://www.w3.org/2000/svg" width="52" height="52" viewBox="0 0 52 52" fill="none">
    <path d="M0 0H52V60H0Z" fill="#0088FF"/>
    <path fill-rule="evenodd" clip-rule="evenodd" d="M8 4H4V24H16V20H20V24H32V20H36V24H48V4H36V8H32V4H20V8H16V4H12V8H8V4ZM28 12V8H32V12H28ZM24 16V12H28V16H24ZM24 16V20H20V16ZM40 16H44V20H40Z" fill="white"/>
    <path fill-rule="evenodd" clip-rule="evenodd" d="M8 28H4V48H16V44H20V48H32V44H36V48H48V28H36V32H32V28H20V32H16V28H12V32H8V28ZM28 36V32H32V36ZM24 40V36H28V40ZM20 44V40H24V44ZM40 44V40H44V44Z" fill="white"/>
</svg>