<?xml version="1.0" encoding="UTF-8"?>
<svg width="29px" height="29px" viewBox="0 0 29 29" version="1.1" xmlns="http://www.w3.org/2000/svg" xmlns:xlink="http://www.w3.org/1999/xlink">
    <title>wawa-faction-logos-block-border-inline-00-colors</title>
    <g id="wawa-faction-logos-block-border-inline-00-colors" stroke="none" stroke-width="1" fill="none" fill-rule="evenodd">
        <path d="M28,15 L28,28 L15,28 L15,15 L28,15 Z M27,16 L16,16 L16,27 L27,27 L27,16 Z M26,17 L26,26 L20,26 L20,23 L17,23 L17,17 L26,17 Z M25,18 L18,18 L18,22 L19,22 L19,19 L24,19 L24,24 L21,24 L21,25 L25,25 L25,18 Z M23,20 L20,20 L20,23 L23,23 L23,20 Z" id="flavo" fill="#FFCD03"></path>
        <path d="M14,15 L14,28 L1,28 L1,15 L14,15 Z M13,16 L2,16 L2,27 L13,27 L13,16 Z M6,23 L6,26 L3,26 L3,23 L6,23 Z M12,23 L12,26 L9,26 L9,23 L12,23 Z M5,24 L4,24 L4,25 L5,25 L5,24 Z M11,24 L10,24 L10,25 L11,25 L11,24 Z M12,17 L12,20 L9,20 L9,23 L6,23 L6,20 L3,20 L3,17 L12,17 Z M11,18 L4,18 L4,19 L7,19 L7,22 L8,22 L8,19 L11,19 L11,18 Z" id="zook" fill="#00AF4D"></path>
        <path d="M28,1 L28,14 L15,14 L15,1 L28,1 Z M27,2 L16,2 L16,13 L27,13 L27,2 Z M20,9 L20,12 L17,12 L17,9 L20,9 Z M19,10 L18,10 L18,11 L19,11 L19,10 Z M23,3 L23,6 L26,6 L26,9 L20,9 L20,6 L17,6 L17,3 L23,3 Z M22,4 L18,4 L18,5 L21,5 L21,8 L25,8 L25,7 L22,7 L22,4 Z" id="mecha" fill="#F83737"></path>
        <path d="M14,1 L14,14 L1,14 L1,1 L14,1 Z M13,2 L2,2 L2,13 L13,13 L13,2 Z M6,9 L6,12 L3,12 L3,9 L6,9 Z M5,10 L4,10 L4,11 L5,11 L5,10 Z M12,3 L12,9 L6,9 L6,3 L12,3 Z M11,4 L7,4 L7,8 L11,8 L11,4 Z" id="prima" fill="#418AF1"></path>
    </g>
</svg>