<?xml version="1.0" encoding="UTF-8"?>
<svg width="29px" height="29px" viewBox="0 0 29 29" version="1.1" xmlns="http://www.w3.org/2000/svg" xmlns:xlink="http://www.w3.org/1999/xlink">
    <title>wawa-faction-logos-block-00-colors</title>
    <g id="wawa-faction-logos-block-00-colors" stroke="none" stroke-width="1" fill="none" fill-rule="evenodd">
        <path d="M28,15 L28,28 L15,28 L15,15 L28,15 Z M26,17 L17,17 L17,23 L20,23 L20,26 L26,26 L26,17 Z M23,20 L23,23 L20,23 L20,20 L23,20 Z" id="flavo" fill="#FFCD03"></path>
        <path d="M14,15 L14,28 L1,28 L1,15 L14,15 Z M6,23 L3,23 L3,26 L6,26 L6,23 Z M12,23 L9,23 L9,26 L12,26 L12,23 Z M12,17 L3,17 L3,20 L6,20 L6,23 L9,23 L9,20 L12,20 L12,17 Z" id="zook" fill="#00AF4D"></path>
        <path d="M28,1 L28,14 L15,14 L15,1 L28,1 Z M20,9 L17,9 L17,12 L20,12 L20,9 Z M23,3 L17,3 L17,6 L20,6 L20,9 L26,9 L26,6 L23,6 L23,3 Z" id="mecha" fill="#F83737"></path>
        <path d="M14,1 L14,14 L1,14 L1,1 L14,1 Z M6,9 L3,9 L3,12 L6,12 L6,9 Z M12,3 L6,3 L6,9 L12,9 L12,3 Z" id="prima" fill="#418AF1"></path>
    </g>
</svg>