<?xml version="1.0" encoding="UTF-8"?>
<svg width="29px" height="29px" viewBox="0 0 29 29" version="1.1" xmlns="http://www.w3.org/2000/svg" xmlns:xlink="http://www.w3.org/1999/xlink">
    <title>wawa-faction-logos-block-border-inline-black-colors</title>
    <g id="wawa-faction-logos-block-border-inline-black-colors" stroke="none" stroke-width="1" fill="none" fill-rule="evenodd">
        <g id="flavo" transform="translate(15, 15)">
            <rect id="rectangle-2" fill="#FFCD03" x="0" y="0" width="13" height="13"></rect>
            <rect id="rectangle-1" fill="#000000" x="1" y="1" width="11" height="11"></rect>
            <polygon id="path-1" fill="#FFCD03" points="2 2 11 2 11 11 5 11 5 8 8 8 8 5 5 5 5 8 2 8"></polygon>
            <path d="M4,7 L4,4 L9,4 L9,9 L6,9 L6,10 C6.66666667,10 8,10 10,10 L10,3 L3,3 L3,7 L4,7 Z" id="path-1-inline" fill="#000000"></path>
        </g>
        <g id="zook" transform="translate(1, 15)">
            <rect id="rectangle-4" fill="#00AF4D" x="0" y="0" width="13" height="13"></rect>
            <rect id="rectangle-3" fill="#000000" x="1" y="1" width="11" height="11"></rect>
            <rect id="rectangle-2" fill="#00AF4D" x="2" y="8" width="3" height="3"></rect>
            <rect id="rectangle-2-inline" fill="#000000" x="3" y="9" width="1" height="1"></rect>
            <rect id="rectangle-1" fill="#00AF4D" x="8" y="8" width="3" height="3"></rect>
            <rect id="rectangle-1-inline" fill="#000000" x="9" y="9" width="1" height="1"></rect>
            <polygon id="path-1" fill="#00AF4D" points="2 2 11 2 11 5 8 5 8 8 5 8 5 5 2 5"></polygon>
            <polygon id="path-1-inline" fill="#000000" points="3 3 10 3 10 4 7 4 7 7 6 7 6 4 3 4"></polygon>
        </g>
        <g id="mecha" transform="translate(15, 1)">
            <rect id="rectangle-3" fill="#F83737" x="0" y="0" width="13" height="13"></rect>
            <rect id="rectangle-2" fill="#000000" x="1" y="1" width="11" height="11"></rect>
            <rect id="rectangle-1" fill="#F83737" x="2" y="8" width="3" height="3"></rect>
            <rect id="rectangle-1-inline" fill="#000000" x="3" y="9" width="1" height="1"></rect>
            <polygon id="path-1" fill="#F83737" points="2 2 8 2 8 5 11 5 11 8 5 8 5 5 2 5"></polygon>
            <path d="M3,3 C5.66666667,3 7,3 7,3 C7,3 7,6 7,6 C7,6 8,6 10,6 C10,6.66666667 10,7 10,7 C10,7 8.66666667,7 6,7 L6,4 L3,4 L3,3 Z" id="path-1-inline" fill="#000000"></path>
        </g>
        <g id="prima" transform="translate(1, 1)">
            <rect id="rectangle-4" fill="#418AF1" x="0" y="0" width="13" height="13"></rect>
            <rect id="rectangle-3" fill="#000000" x="1" y="1" width="11" height="11"></rect>
            <rect id="rectangle-2" fill="#418AF1" x="5" y="2" width="6" height="6"></rect>
            <rect id="rectangle-2-inline" fill="#000000" x="6" y="3" width="4" height="4"></rect>
            <rect id="rectangle-1" fill="#418AF1" x="2" y="8" width="3" height="3"></rect>
            <rect id="rectangle-1-inline" fill="#000000" x="3" y="9" width="1" height="1"></rect>
        </g>
    </g>
</svg>