<?xml version="1.0" encoding="UTF-8"?>
<svg width="29px" height="29px" viewBox="0 0 29 29" version="1.1" xmlns="http://www.w3.org/2000/svg" xmlns:xlink="http://www.w3.org/1999/xlink">
    <title>wawa-faction-logos-block-colors-black</title>
    <g id="wawa-faction-logos-block-colors-black" stroke="none" stroke-width="1" fill="none" fill-rule="evenodd">
        <g id="logo" transform="translate(15, 15)">
            <rect id="rectangle-1" fill="#000000" x="0" y="0" width="13" height="13"></rect>
            <polygon id="path-1" fill="#FFCD03" points="2 2 11 2 11 11 5 11 5 8 8 8 8 5 5 5 5 8 2 8"></polygon>
        </g>
        <g id="logo" transform="translate(1, 15)">
            <rect id="rectangle-3" fill="#000000" x="0" y="0" width="13" height="13"></rect>
            <rect id="rectangle-2" fill="#00AF4D" x="2" y="8" width="3" height="3"></rect>
            <rect id="rectangle-1" fill="#00AF4D" x="8" y="8" width="3" height="3"></rect>
            <polygon id="path-1" fill="#00AF4D" points="2 2 11 2 11 5 8 5 8 8 5 8 5 5 2 5"></polygon>
        </g>
        <g id="logo" transform="translate(15, 1)">
            <rect id="rectangle-2" fill="#000000" x="0" y="0" width="13" height="13"></rect>
            <rect id="rectangle-1" fill="#F83737" x="2" y="8" width="3" height="3"></rect>
            <polygon id="path-1" fill="#F83737" points="2 2 8 2 8 5 11 5 11 8 5 8 5 5 2 5"></polygon>
        </g>
        <g id="logo" transform="translate(1, 1)">
            <rect id="rectangle-3" fill="#000000" x="0" y="0" width="13" height="13"></rect>
            <rect id="rectangle-2" fill="#418AF1" x="2" y="8" width="3" height="3"></rect>
            <rect id="rectangle-1" fill="#418AF1" x="5" y="2" width="6" height="6"></rect>
        </g>
    </g>
</svg>