<?xml version="1.0" encoding="UTF-8"?>
<svg width="15px" height="15px" viewBox="0 0 15 15" version="1.1" xmlns="http://www.w3.org/2000/svg" xmlns:xlink="http://www.w3.org/1999/xlink">
    <title>wawa-mecha-logo-border-inline-red-black</title>
    <g id="wawa-mecha-logo-border-inline-red-black" stroke="none" stroke-width="1" fill="none" fill-rule="evenodd">
        <g id="logo" transform="translate(1, 1)">
            <rect id="rectangle-3" fill="#000000" x="0" y="0" width="13" height="13"></rect>
            <rect id="rectangle-2" fill="#F83737" x="1" y="1" width="11" height="11"></rect>
            <rect id="rectangle-1" fill="#000000" x="2" y="8" width="3" height="3"></rect>
            <rect id="rectangle-1-inline" fill="#F83737" x="3" y="9" width="1" height="1"></rect>
            <polygon id="path-1" fill="#000000" points="2 2 8 2 8 5 11 5 11 8 5 8 5 5 2 5"></polygon>
            <path d="M3,3 C5.66666667,3 7,3 7,3 C7,3 7,6 7,6 C7,6 8,6 10,6 C10,6.66666667 10,7 10,7 C10,7 8.66666667,7 6,7 L6,4 L3,4 L3,3 Z" id="path-1-inline" fill="#F83737"></path>
        </g>
    </g>
</svg>