<?xml version="1.0" encoding="UTF-8"?>
<svg width="15px" height="15px" viewBox="0 0 15 15" version="1.1" xmlns="http://www.w3.org/2000/svg" xmlns:xlink="http://www.w3.org/1999/xlink">
    <title>wawa-flavo-logo-border-inline-black-00</title>
    <g id="wawa-flavo-logo-border-inline-black-00" stroke="none" stroke-width="1" fill="none" fill-rule="evenodd">
        <path d="M14,1 L14,14 L1,14 L1,1 L14,1 Z M13,2 L2,2 L2,13 L13,13 L13,2 Z M12,3 L12,12 L6,12 L6,9 L3,9 L3,3 L12,3 Z M11,4 L4,4 L4,8 L5,8 L5,5 L10,5 L10,10 L7,10 L7,11 L11,11 L11,4 Z M9,6 L6,6 L6,9 L9,9 L9,6 Z" id="logo" fill="#000000"></path>
    </g>
</svg>