<?xml version="1.0" encoding="UTF-8"?>
<svg width="15px" height="15px" viewBox="0 0 15 15" version="1.1" xmlns="http://www.w3.org/2000/svg" xmlns:xlink="http://www.w3.org/1999/xlink">
    <title>wawa-mecha-logo-border-inline-red</title>
    <g id="wawa-mecha-logo-border-inline-red" stroke="none" stroke-width="1" fill="none" fill-rule="evenodd">
        <path d="M14,1 L14,14 L1,14 L1,1 L14,1 Z M13,2 L2,2 L2,13 L13,13 L13,2 Z M6,9 L6,12 L3,12 L3,9 L6,9 Z M5,10 L4,10 L4,11 L5,11 L5,10 Z M9,3 L9,6 L12,6 L12,9 L6,9 L6,6 L3,6 L3,3 L9,3 Z M8,4 L4,4 L4,5 L7,5 L7,8 L11,8 L11,7 L8,7 L8,4 Z" id="logo" fill="#F83737"></path>
    </g>
</svg>