<?xml version="1.0" encoding="UTF-8"?>
<svg width="15px" height="15px" viewBox="0 0 15 15" version="1.1" xmlns="http://www.w3.org/2000/svg" xmlns:xlink="http://www.w3.org/1999/xlink">
    <title>wawa-prima-logo-border-inline-blue</title>
    <g id="wawa-prima-logo-border-inline-blue" stroke="none" stroke-width="1" fill="none" fill-rule="evenodd">
        <path d="M14,1 L14,14 L1,14 L1,1 L14,1 Z M13,2 L2,2 L2,13 L13,13 L13,2 Z M6,9 L6,12 L3,12 L3,9 L6,9 Z M5,10 L4,10 L4,11 L5,11 L5,10 Z M12,3 L12,9 L6,9 L6,3 L12,3 Z M11,4 L7,4 L7,8 L11,8 L11,4 Z" id="logo" fill="#418AF1"></path>
    </g>
</svg>