<?xml version="1.0" encoding="UTF-8"?>
<svg width="2500px" height="700px" viewBox="0 0 2500 700" version="1.1" xmlns="http://www.w3.org/2000/svg" xmlns:xlink="http://www.w3.org/1999/xlink">
    <title>wawa logo wide rainbow@1x</title>
    <g id="wawa-logo-wide-rainbow" stroke="none" stroke-width="1" fill="none" fill-rule="evenodd">
        <path d="M2400,100 L2400,600 L2100,600 L2100,500 L2000,500 L2000,600 L1700,600 L1700,500 L1800,500 L1800,400 L1900,400 L1900,300 L2000,300 L2000,200 L2100,200 L2100,100 L2400,100 Z M2300,400 L2200,400 L2200,500 L2300,500 L2300,400 Z" id="a" fill="#00AF4D"></path>
        <polygon id="w" fill="#418AF1" points="1300 100 1400 100 1400 200 1500 200 1500 100 1600 100 1600 200 1700 200 1700 100 2000 100 2000 200 1900 200 1900 300 1800 300 1800 400 1700 400 1700 500 1600 500 1600 600 1300 600"></polygon>
        <path d="M1200,100 L1200,600 L900,600 L900,500 L800,500 L800,600 L500,600 L500,500 L600,500 L600,400 L700,400 L700,300 L800,300 L800,200 L900,200 L900,100 L1200,100 Z M1100,400 L1000,400 L1000,500 L1100,500 L1100,400 Z" id="a" fill="#F83737"></path>
        <polygon id="w" fill="#FFCD03" points="100 100 200 100 200 200 300 200 300 100 400 100 400 200 500 200 500 100 800 100 800 200 700 200 700 300 600 300 600 400 500 400 500 500 400 500 400 600 100 600"></polygon>
    </g>
</svg>