<?xml version="1.0" encoding="UTF-8"?>
<svg width="2500px" height="700px" viewBox="0 0 2500 700" version="1.1" xmlns="http://www.w3.org/2000/svg" xmlns:xlink="http://www.w3.org/1999/xlink">
    <title>wawa logo wide phi paper@1x</title>
    <g id="wawa-logo-wide-phi-paper" stroke="none" stroke-width="1" fill="none" fill-rule="evenodd">
        <path d="M2400,100 L2400,600 L2100,600 L2100,500 L2000,500 L2000,600 L1700,600 L1700,500 L1800,500 L1800,400 L1900,400 L1900,300 L2000,300 L2000,200 L2100,200 L2100,100 L2400,100 Z M1400,100 L1400,200 L1500,200 L1500,100 L1600,100 L1600,200 L1700,200 L1700,100 L2000,100 L2000,200 L1900,200 L1900,300 L1800,300 L1800,400 L1700,400 L1700,500 L1600,500 L1600,600 L1300,600 L1300,100 L1400,100 Z M1200,100 L1200,600 L900,600 L900,500 L800,500 L800,600 L500,600 L500,500 L600,500 L600,400 L700,400 L700,300 L800,300 L800,200 L900,200 L900,100 L1200,100 Z M200,100 L200,200 L300,200 L300,100 L400,100 L400,200 L500,200 L500,100 L800,100 L800,200 L700,200 L700,300 L600,300 L600,400 L500,400 L500,500 L400,500 L400,600 L100,600 L100,100 L200,100 Z M2300,400 L2200,400 L2200,500 L2300,500 L2300,400 Z M1100,400 L1000,400 L1000,500 L1100,500 L1100,400 Z" id="logo" fill="#f2f0ed"></path>
    </g>
</svg>