<?xml version="1.0" encoding="UTF-8"?>
<svg width="25px" height="7px" viewBox="0 0 25 7" version="1.1" xmlns="http://www.w3.org/2000/svg" xmlns:xlink="http://www.w3.org/1999/xlink">
    <title>wawa logo wide rainbow@1x</title>
    <g id="wawa-logo-wide-rainbow" stroke="none" stroke-width="1" fill="none" fill-rule="evenodd">
        <path id="a" d="M24,1 L24,6 L21,6 L21,5 L20,5 L20,6 L17,6 L17,5 L18,5 L18,4 L19,4 L19,3 L20,3 L20,2 L21,2 L21,1 L24,1 Z M23,4 L22,4 L22,5 L23,5 L23,4 Z" fill="#00AF4D"></path>
        <polygon id="w" fill="#418AF1" points="13 1 14 1 14 2 15 2 15 1 16 1 16 2 17 2 17 1 20 1 20 2 19 2 19 3 18 3 18 4 17 4 17 5 16 5 16 6 13 6"></polygon>
        <path id="a" d="M12,1 L12,6 L9,6 L9,5 L8,5 L8,6 L5,6 L5,5 L6,5 L6,4 L7,4 L7,3 L8,3 L8,2 L9,2 L9,1 L12,1 Z M11,4 L10,4 L10,5 L11,5 L11,4 Z" fill="#F83737"></path>
        <polygon id="w" fill="#FFCD03" points="1 1 2 1 2 2 3 2 3 1 4 1 4 2 5 2 5 1 8 1 8 2 7 2 7 3 6 3 6 4 5 4 5 5 4 5 4 6 1 6"></polygon>
    </g>
</svg>